<svg id="Layer_1" data-name="Layer 1" xmlns="http://www.w3.org/2000/svg" viewBox="0 0 1155 395"><defs><style>.cls-1{fill:#fff;}.cls-2{fill:#007bff;}.cls-3{fill:none;}.cls-4{opacity:0.67;}</style></defs><title>Artboard 1</title><path class="cls-1" d="M632.53,73.76c-21,23.8-35.41,51.12-42.17,82.22-2,9.08-2.88,18.4-4.29,27.61-.13.87-.37,1.73-.56,2.59v22.64q.88,6.77,1.78,13.53a182,182,0,0,0,27,74.57L678,36.26C662.77,45.31,643.74,61.05,632.53,73.76Z"/><path class="cls-2" d="M632.53,73.76c-21,23.8-35.41,51.12-42.17,82.22-2,9.08-2.88,18.4-4.29,27.61-.13.87-.37,1.73-.56,2.59v22.64q.88,6.77,1.78,13.53a182,182,0,0,0,27,74.57L678,36.26C662.77,45.31,643.74,61.05,632.53,73.76Z"/><path class="cls-2" d="M934,289.54a164,164,0,0,0,17.34-42c2.28-9.13,3.78-18.45,5.64-27.67.17-.87.45-1.71.68-2.57q.52-11.31,1.06-22.61c-.39-4.64-.76-9.27-1.16-13.9a183.19,183.19,0,0,0-28.92-84.42q-5-7.78-10.65-14.93L848,367.56a189.39,189.39,0,0,0,25-13.64A185.43,185.43,0,0,0,934,289.54Z"/><path class="cls-3" d="M850,82.55c-14-11.1-29.91-17.87-47.29-21.3-22.37-4.42-44.59-4.47-66.38,3.18-23.38,8.2-42.37,22.14-56,43.1-13.88,21.41-17.33,45-13.62,69.67,2.87,19.13,13.81,32.07,32.58,37.86.95.29,2.76.09,3.18-.54,5.57-8.36,6.88-17.09,2-26.37-2.42-4.64-5.39-9.3-6.46-14.3-3.93-18.54-.19-35.91,10-51.78a80.26,80.26,0,0,1,39-31.79c25.56-10.06,50.24-9.36,73.2,7.24a51.69,51.69,0,0,1,20.51,30.75c3.43,14.35,3.32,28.78.67,43.16-3.2,17.4-9.21,33.69-21.2,47.15-9.9,11.12-22.08,16.65-37.2,13.76-13.41-2.56-20.68-10.21-19.18-24.57.89-8.5,3.55-16.44,6.23-24.43,4.16-12.4,9.65-24.38,11.6-37.46.88-5.9.9-11.78-2.42-17-7.62-12-26.47-13.57-36.79-3.41A46.84,46.84,0,0,0,731.18,143c-5.08,13.87-6.13,27.79-.52,41.83a7.42,7.42,0,0,1,.26,4.49c-5.68,19.32-11.51,38.59-17.24,57.89-6.18,20.81-10.6,42-10.95,63.75-.12,7.27.35,14.56.57,22.39,1.09-.67,1.5-.91,1.89-1.17a71.56,71.56,0,0,0,19.72-20.82c9.08-14.06,14.64-29.65,19.27-45.59,2.29-7.88,4.24-15.86,6.47-24.3,3.11,2.25,6.08,4.32,9,6.49,7.33,5.49,14.73,10.66,24.13,12.23,24.42,4.09,45.53-2.56,63.64-19.18,13.11-12,21.71-27,27.41-43.64a131.37,131.37,0,0,0,6.06-62C877.74,113.69,867.11,96.18,850,82.55Z"/><path class="cls-2" d="M876.18,42.75a173.07,173.07,0,0,0-54.07-24.87c-9.1-2.34-18.44-3.77-27.67-5.63-.86-.18-1.7-.46-2.55-.68l-22.61-1.06-13.59,1.15a183.21,183.21,0,0,0-75.3,23.23c-.78.43-1.57.9-2.37,1.37L614.31,296.92c1.92,3,3.92,6,6,8.94,17.62,24.67,32.85,38.36,59.1,53.44a178.65,178.65,0,0,0,59,21.39c4.48.78,9,1.61,13.42,2.41l22.62,1.06L788.05,383a181.83,181.83,0,0,0,60-15.45L918,81.49A186.15,186.15,0,0,0,876.18,42.75ZM874.8,197.38C869.1,214,860.5,229,847.39,241c-18.11,16.62-39.22,23.27-63.64,19.18-9.4-1.57-16.8-6.74-24.13-12.23-2.89-2.17-5.86-4.24-9-6.49-2.23,8.44-4.18,16.42-6.47,24.3-4.63,15.94-10.19,31.53-19.27,45.59a71.56,71.56,0,0,1-19.72,20.82c-.39.26-.8.5-1.89,1.17-.22-7.83-.69-15.12-.57-22.39.35-21.8,4.77-42.94,10.95-63.75,5.73-19.3,11.56-38.57,17.24-57.89a7.42,7.42,0,0,0-.26-4.49c-5.61-14-4.56-28,.52-41.83a46.84,46.84,0,0,1,11.37-17.54c10.32-10.16,29.17-8.56,36.79,3.41,3.32,5.22,3.3,11.1,2.42,17-2,13.08-7.44,25.06-11.6,37.46-2.68,8-5.34,15.93-6.23,24.43-1.5,14.36,5.77,22,19.18,24.57,15.12,2.89,27.3-2.64,37.2-13.76,12-13.46,18-29.75,21.2-47.15,2.65-14.38,2.76-28.81-.67-43.16a51.69,51.69,0,0,0-20.51-30.75c-23-16.6-47.64-17.3-73.2-7.24a80.26,80.26,0,0,0-39,31.79c-10.23,15.87-14,33.24-10,51.78,1.07,5,4,9.66,6.46,14.3,4.83,9.28,3.52,18-2,26.37-.42.63-2.23.83-3.18.54-18.77-5.79-29.71-18.73-32.58-37.86-3.71-24.69-.26-48.26,13.62-69.67,13.59-21,32.58-34.9,56-43.1,21.79-7.65,44-7.6,66.38-3.18C820.08,64.68,836,71.45,850,82.55c17.12,13.63,27.75,31.14,30.87,52.86A131.37,131.37,0,0,1,874.8,197.38Z"/><g class="cls-4"><path class="cls-1" d="M632.53,73.76c-21,23.8-35.41,51.12-42.17,82.22-2,9.08-2.88,18.4-4.29,27.61-.13.87-.37,1.73-.56,2.59v22.64q.88,6.77,1.78,13.53a182,182,0,0,0,27,74.57L678,36.26C662.77,45.31,643.74,61.05,632.53,73.76Z"/><path class="cls-1" d="M632.53,73.76c-21,23.8-35.41,51.12-42.17,82.22-2,9.08-2.88,18.4-4.29,27.61-.13.87-.37,1.73-.56,2.59v22.64q.88,6.77,1.78,13.53a182,182,0,0,0,27,74.57L678,36.26C662.77,45.31,643.74,61.05,632.53,73.76Z"/><path class="cls-1" d="M934,289.54a164,164,0,0,0,17.34-42c2.28-9.13,3.78-18.45,5.64-27.67.17-.87.45-1.71.68-2.57q.52-11.31,1.06-22.61c-.39-4.64-.76-9.27-1.16-13.9a183.19,183.19,0,0,0-28.92-84.42q-5-7.78-10.65-14.93L848,367.56a189.39,189.39,0,0,0,25-13.64A185.43,185.43,0,0,0,934,289.54Z"/></g><path class="cls-2" d="M198,168.78c28.6,0,33,14.52,25.52,43.12L191.81,339.5H141.65l29-117H123.17l-29,117H36.49l70.4-282h57.64L136.81,168.78h5.28L216,57.46h56.32Z"/><path class="cls-2" d="M242,339.5l70.4-282H460.21L446.13,112.9h-92l-14.08,56.76h72.6l-13.2,52.8h-72.6l-15,59.84h92l-14.08,57.2Z"/><path class="cls-2" d="M438.64,339.5l70.4-282H656.88L642.8,112.9h-92l-14.08,56.76h72.6l-13.2,52.8h-72.6l-15,59.84h92l-14.08,57.2Z"/><path class="cls-2" d="M993.83,339.5l29-116.16H971l-29,116.16H885.15l70.4-282h124.52c21.12,0,33.88,18.92,28.6,40L1091.51,167c-5.28,20.68-19.36,33.44-35.2,34.32,19.8,1.32,22,22.44,16.28,46.2l-22.88,92Zm56.32-231H998.23l-15.84,62.92h51.92Z"/><path class="cls-2" d="M771.14,10.51C874.32,10.51,958,94.15,958,197.33S874.32,384.16,771.14,384.16,584.31,300.51,584.31,197.33,668,10.51,771.14,10.51m0-6A192.87,192.87,0,0,0,696.08,375,192.87,192.87,0,0,0,846.2,19.66,191.75,191.75,0,0,0,771.14,4.51Z"/></svg>